<mxfile host="app.diagrams.net" modified="2022-01-27T06:04:55.887Z" agent="5.0 (Macintosh)" etag="VFo0IBQ8GtC9kWJoBb-c" version="16.4.7" type="github">
  <diagram id="dGtenjGF5yGHcLKJMH2F" name="Page-1">
    <mxGraphModel dx="1288" dy="1770" grid="0" gridSize="10" guides="1" tooltips="1" connect="1" arrows="1" fold="1" page="0" pageScale="1" pageWidth="1920" pageHeight="1200" background="none" math="0" shadow="0">
      <root>
        <mxCell id="0" />
        <mxCell id="1" parent="0" />
        <mxCell id="Q8GiGGS7Q5M12Zl3h-_X-12" style="edgeStyle=orthogonalEdgeStyle;rounded=0;orthogonalLoop=1;jettySize=auto;html=1;" parent="1" source="JjXOpYsjtVwmJttBmwgl-8" target="JjXOpYsjtVwmJttBmwgl-39" edge="1">
          <mxGeometry relative="1" as="geometry" />
        </mxCell>
        <mxCell id="Q8GiGGS7Q5M12Zl3h-_X-13" style="edgeStyle=orthogonalEdgeStyle;rounded=0;orthogonalLoop=1;jettySize=auto;html=1;" parent="1" source="JjXOpYsjtVwmJttBmwgl-9" target="JjXOpYsjtVwmJttBmwgl-40" edge="1">
          <mxGeometry relative="1" as="geometry" />
        </mxCell>
        <mxCell id="JjXOpYsjtVwmJttBmwgl-13" value="ReflectiveMethodInvocation" style="rounded=0;whiteSpace=wrap;html=1;fillColor=#e1d5e7;strokeColor=#9673a6;" parent="1" vertex="1">
          <mxGeometry x="982" y="-143" width="160" height="66" as="geometry" />
        </mxCell>
        <mxCell id="JjXOpYsjtVwmJttBmwgl-22" value="" style="shape=flexArrow;endArrow=classic;html=1;rounded=0;fillColor=#f5f5f5;strokeColor=#666666;" parent="1" edge="1">
          <mxGeometry width="50" height="50" relative="1" as="geometry">
            <mxPoint x="211" y="135" as="sourcePoint" />
            <mxPoint x="301" y="135" as="targetPoint" />
          </mxGeometry>
        </mxCell>
        <mxCell id="JjXOpYsjtVwmJttBmwgl-33" value="" style="shape=flexArrow;endArrow=classic;html=1;rounded=0;fillColor=#f5f5f5;strokeColor=#666666;exitX=0.5;exitY=1;exitDx=0;exitDy=0;endWidth=23.636363636363633;endSize=5.6;" parent="1" source="JjXOpYsjtVwmJttBmwgl-13" edge="1">
          <mxGeometry width="50" height="50" relative="1" as="geometry">
            <mxPoint x="1041" y="-64" as="sourcePoint" />
            <mxPoint x="1062" y="291" as="targetPoint" />
          </mxGeometry>
        </mxCell>
        <mxCell id="JjXOpYsjtVwmJttBmwgl-38" value="职责链" style="text;html=1;align=center;verticalAlign=middle;resizable=0;points=[];autosize=1;strokeColor=none;fillColor=none;" parent="1" vertex="1">
          <mxGeometry x="1036" y="-4" width="50" height="20" as="geometry" />
        </mxCell>
        <mxCell id="JjXOpYsjtVwmJttBmwgl-41" style="edgeStyle=orthogonalEdgeStyle;rounded=0;orthogonalLoop=1;jettySize=auto;html=1;entryX=0.113;entryY=0.015;entryDx=0;entryDy=0;entryPerimeter=0;" parent="1" source="JjXOpYsjtVwmJttBmwgl-39" target="JjXOpYsjtVwmJttBmwgl-13" edge="1">
          <mxGeometry relative="1" as="geometry" />
        </mxCell>
        <mxCell id="JjXOpYsjtVwmJttBmwgl-39" value="DynamicAdvisedInterceptor#intercept" style="rounded=0;whiteSpace=wrap;html=1;fillColor=#d5e8d4;strokeColor=#82b366;" parent="1" vertex="1">
          <mxGeometry x="842" y="-242" width="220" height="50" as="geometry" />
        </mxCell>
        <mxCell id="JjXOpYsjtVwmJttBmwgl-42" style="edgeStyle=orthogonalEdgeStyle;rounded=0;orthogonalLoop=1;jettySize=auto;html=1;entryX=0.619;entryY=-0.015;entryDx=0;entryDy=0;entryPerimeter=0;" parent="1" source="JjXOpYsjtVwmJttBmwgl-40" target="JjXOpYsjtVwmJttBmwgl-13" edge="1">
          <mxGeometry relative="1" as="geometry" />
        </mxCell>
        <mxCell id="JjXOpYsjtVwmJttBmwgl-40" value="JdkDynamicAopInvoke#invoke" style="whiteSpace=wrap;html=1;fillColor=#d5e8d4;strokeColor=#82b366;" parent="1" vertex="1">
          <mxGeometry x="1082" y="-247" width="170" height="60" as="geometry" />
        </mxCell>
        <mxCell id="Q8GiGGS7Q5M12Zl3h-_X-19" value="1" style="endArrow=open;html=1;endSize=12;startArrow=diamondThin;startSize=14;startFill=0;edgeStyle=orthogonalEdgeStyle;align=left;verticalAlign=bottom;rounded=0;entryX=-0.002;entryY=0.426;entryDx=0;entryDy=0;entryPerimeter=0;exitX=0.996;exitY=0.485;exitDx=0;exitDy=0;exitPerimeter=0;" parent="1" source="Q8GiGGS7Q5M12Zl3h-_X-17" target="Q8GiGGS7Q5M12Zl3h-_X-14" edge="1">
          <mxGeometry x="-1" y="3" relative="1" as="geometry">
            <mxPoint x="736" y="-454.5" as="sourcePoint" />
            <mxPoint x="831" y="-454" as="targetPoint" />
            <Array as="points" />
          </mxGeometry>
        </mxCell>
        <mxCell id="Q8GiGGS7Q5M12Zl3h-_X-21" value="1" style="endArrow=open;html=1;endSize=12;startArrow=diamondThin;startSize=14;startFill=0;edgeStyle=orthogonalEdgeStyle;align=left;verticalAlign=bottom;rounded=0;exitX=-0.009;exitY=0.642;exitDx=0;exitDy=0;exitPerimeter=0;entryX=-0.01;entryY=0.445;entryDx=0;entryDy=0;entryPerimeter=0;" parent="1" source="Q8GiGGS7Q5M12Zl3h-_X-9" target="Q8GiGGS7Q5M12Zl3h-_X-14" edge="1">
          <mxGeometry x="-1" y="3" relative="1" as="geometry">
            <mxPoint x="1201" y="-474" as="sourcePoint" />
            <mxPoint x="1151" y="-464" as="targetPoint" />
            <Array as="points" />
          </mxGeometry>
        </mxCell>
        <mxCell id="Q8GiGGS7Q5M12Zl3h-_X-25" value="" style="shape=flexArrow;endArrow=classic;html=1;rounded=0;exitX=0.981;exitY=0.469;exitDx=0;exitDy=0;exitPerimeter=0;fillColor=#f5f5f5;strokeColor=#666666;" parent="1" edge="1">
          <mxGeometry width="50" height="50" relative="1" as="geometry">
            <mxPoint x="935.9649999999999" y="136.06400000000008" as="sourcePoint" />
            <mxPoint x="1036" y="136" as="targetPoint" />
          </mxGeometry>
        </mxCell>
        <mxCell id="Q8GiGGS7Q5M12Zl3h-_X-26" value="" style="shape=flexArrow;endArrow=classic;html=1;rounded=0;exitX=0.981;exitY=0.469;exitDx=0;exitDy=0;exitPerimeter=0;fillColor=#f5f5f5;strokeColor=#666666;" parent="1" edge="1">
          <mxGeometry width="50" height="50" relative="1" as="geometry">
            <mxPoint x="935.9649999999999" y="76.06400000000008" as="sourcePoint" />
            <mxPoint x="1036" y="76" as="targetPoint" />
          </mxGeometry>
        </mxCell>
        <mxCell id="Q8GiGGS7Q5M12Zl3h-_X-27" value="" style="shape=flexArrow;endArrow=classic;html=1;rounded=0;exitX=0.981;exitY=0.469;exitDx=0;exitDy=0;exitPerimeter=0;fillColor=#f5f5f5;strokeColor=#666666;" parent="1" edge="1">
          <mxGeometry width="50" height="50" relative="1" as="geometry">
            <mxPoint x="935.9649999999999" y="206.06400000000008" as="sourcePoint" />
            <mxPoint x="1036" y="206" as="targetPoint" />
          </mxGeometry>
        </mxCell>
        <mxCell id="8Big4Oky50_R1mQjc7tm-2" value="" style="group;fillColor=#dae8fc;strokeColor=#6c8ebf;" parent="1" vertex="1" connectable="0">
          <mxGeometry x="502" y="-827" width="270" height="400" as="geometry" />
        </mxCell>
        <mxCell id="Q8GiGGS7Q5M12Zl3h-_X-17" value="" style="swimlane;startSize=0;fillColor=#dae8fc;strokeColor=#6c8ebf;shadow=0;swimlaneFillColor=none;labelBackgroundColor=#B5739D;strokeWidth=2;container=0;" parent="8Big4Oky50_R1mQjc7tm-2" vertex="1">
          <mxGeometry width="270" height="400" as="geometry" />
        </mxCell>
        <mxCell id="Q8GiGGS7Q5M12Zl3h-_X-22" value="自动aop" style="text;html=1;align=center;verticalAlign=middle;resizable=0;points=[];autosize=1;strokeColor=none;fillColor=none;container=0;" parent="8Big4Oky50_R1mQjc7tm-2" vertex="1">
          <mxGeometry x="105" width="60" height="20" as="geometry" />
        </mxCell>
        <mxCell id="Q8GiGGS7Q5M12Zl3h-_X-1" value="&lt;div&gt;SmartInstantiationAwareBeanPostProcessor&lt;/div&gt;" style="whiteSpace=wrap;html=1;fillColor=#f8cecc;strokeColor=#b85450;container=0;" parent="8Big4Oky50_R1mQjc7tm-2" vertex="1">
          <mxGeometry x="10" y="30" width="250" height="50" as="geometry" />
        </mxCell>
        <mxCell id="Q8GiGGS7Q5M12Zl3h-_X-7" value="AbstractAutoProxyCreator" style="whiteSpace=wrap;html=1;fillColor=#ffe6cc;strokeColor=#d79b00;container=0;" parent="8Big4Oky50_R1mQjc7tm-2" vertex="1">
          <mxGeometry x="40" y="110" width="190" height="70" as="geometry" />
        </mxCell>
        <mxCell id="w08Ihvo3caiAlTER4Esc-8" value="&lt;div&gt;AnnotationAwareAspectJAutoProxyCreator&lt;/div&gt;&lt;div&gt;#postProcessAfterInitialization&lt;/div&gt;" style="whiteSpace=wrap;html=1;fillColor=#d5e8d4;strokeColor=#82b366;container=0;" parent="8Big4Oky50_R1mQjc7tm-2" vertex="1">
          <mxGeometry x="20" y="200" width="230" height="60" as="geometry" />
        </mxCell>
        <mxCell id="Q8GiGGS7Q5M12Zl3h-_X-3" value="findCandidateAdvisors" style="whiteSpace=wrap;html=1;fillColor=#d5e8d4;strokeColor=#82b366;container=0;" parent="8Big4Oky50_R1mQjc7tm-2" vertex="1">
          <mxGeometry x="60" y="300" width="150" height="60" as="geometry" />
        </mxCell>
        <mxCell id="Q8GiGGS7Q5M12Zl3h-_X-18" style="edgeStyle=orthogonalEdgeStyle;rounded=0;orthogonalLoop=1;jettySize=auto;html=1;" parent="8Big4Oky50_R1mQjc7tm-2" source="w08Ihvo3caiAlTER4Esc-8" target="Q8GiGGS7Q5M12Zl3h-_X-3" edge="1">
          <mxGeometry relative="1" as="geometry" />
        </mxCell>
        <mxCell id="8Big4Oky50_R1mQjc7tm-3" value="" style="group;fillColor=#dae8fc;strokeColor=#6c8ebf;" parent="1" vertex="1" connectable="0">
          <mxGeometry x="902" y="-499" width="320" height="190" as="geometry" />
        </mxCell>
        <mxCell id="Q8GiGGS7Q5M12Zl3h-_X-14" value="" style="swimlane;startSize=0;fillColor=#d5e8d4;strokeColor=#82b366;container=0;" parent="8Big4Oky50_R1mQjc7tm-3" vertex="1">
          <mxGeometry width="320" height="190" as="geometry" />
        </mxCell>
        <mxCell id="Q8GiGGS7Q5M12Zl3h-_X-16" value="AopProxy" style="text;html=1;align=center;verticalAlign=middle;resizable=0;points=[];autosize=1;strokeColor=#b85450;fillColor=#f8cecc;container=0;" parent="8Big4Oky50_R1mQjc7tm-3" vertex="1">
          <mxGeometry x="5" y="10" width="70" height="20" as="geometry" />
        </mxCell>
        <mxCell id="JjXOpYsjtVwmJttBmwgl-8" value="CglibAopProxy" style="rounded=1;whiteSpace=wrap;html=1;direction=west;fillColor=#ffe6cc;strokeColor=#d79b00;container=0;" parent="8Big4Oky50_R1mQjc7tm-3" vertex="1">
          <mxGeometry x="10" y="110" width="120" height="60" as="geometry" />
        </mxCell>
        <mxCell id="JjXOpYsjtVwmJttBmwgl-9" value="JdkDynamicAopProxy" style="rounded=1;whiteSpace=wrap;html=1;fillColor=#ffe6cc;strokeColor=#d79b00;container=0;" parent="8Big4Oky50_R1mQjc7tm-3" vertex="1">
          <mxGeometry x="190" y="110" width="120" height="60" as="geometry" />
        </mxCell>
        <mxCell id="8Big4Oky50_R1mQjc7tm-4" value="" style="group;fillColor=#dae8fc;strokeColor=#6c8ebf;" parent="1" vertex="1" connectable="0">
          <mxGeometry x="-2" y="-4" width="196" height="271" as="geometry" />
        </mxCell>
        <mxCell id="JjXOpYsjtVwmJttBmwgl-1" value="&lt;div&gt;Advice&lt;/div&gt;&lt;div&gt;BeforeAdvice&lt;/div&gt;&lt;div&gt;MethodBeforeAdvice&lt;/div&gt;&lt;div&gt;AfterAdvice&lt;/div&gt;&lt;div&gt;ThrowsAdvice&lt;/div&gt;&lt;div&gt;AfterReturningAdvice&lt;br&gt;&lt;/div&gt;&lt;div&gt;&lt;br&gt;&lt;/div&gt;&lt;div&gt;&lt;br&gt;&lt;/div&gt;" style="rounded=1;whiteSpace=wrap;html=1;fillColor=#f8cecc;strokeColor=#b85450;" parent="8Big4Oky50_R1mQjc7tm-4" vertex="1">
          <mxGeometry x="13" y="60" width="170" height="120" as="geometry" />
        </mxCell>
        <mxCell id="w08Ihvo3caiAlTER4Esc-1" value="" style="swimlane;startSize=0;" parent="8Big4Oky50_R1mQjc7tm-4" vertex="1">
          <mxGeometry width="196" height="271" as="geometry" />
        </mxCell>
        <mxCell id="JjXOpYsjtVwmJttBmwgl-3" value="&lt;div&gt;Pointcut&lt;/div&gt;&lt;div&gt;ExperessionPointcut&lt;/div&gt;&lt;div&gt;&lt;br&gt;&lt;/div&gt;" style="rounded=0;whiteSpace=wrap;html=1;fillColor=#f8cecc;strokeColor=#b85450;" parent="w08Ihvo3caiAlTER4Esc-1" vertex="1">
          <mxGeometry x="38" y="180" width="120" height="60" as="geometry" />
        </mxCell>
        <mxCell id="w08Ihvo3caiAlTER4Esc-3" value="Advisor" style="text;html=1;align=center;verticalAlign=middle;resizable=0;points=[];autosize=1;strokeColor=#b85450;fillColor=#f8cecc;" parent="8Big4Oky50_R1mQjc7tm-4" vertex="1">
          <mxGeometry x="68" y="20" width="60" height="20" as="geometry" />
        </mxCell>
        <mxCell id="8Big4Oky50_R1mQjc7tm-5" value="" style="group;fillColor=#dae8fc;strokeColor=#6c8ebf;" parent="1" vertex="1" connectable="0">
          <mxGeometry x="41" y="-732" width="200" height="200" as="geometry" />
        </mxCell>
        <mxCell id="w08Ihvo3caiAlTER4Esc-5" value="" style="swimlane;startSize=0;" parent="8Big4Oky50_R1mQjc7tm-5" vertex="1">
          <mxGeometry width="200" height="200" as="geometry" />
        </mxCell>
        <mxCell id="w08Ihvo3caiAlTER4Esc-6" value="&lt;div&gt;NamespaceHandler&lt;/div&gt;&lt;div&gt;&lt;br&gt;&lt;/div&gt;" style="text;html=1;align=center;verticalAlign=middle;resizable=0;points=[];autosize=1;strokeColor=#b85450;fillColor=#f8cecc;" parent="w08Ihvo3caiAlTER4Esc-5" vertex="1">
          <mxGeometry x="40" y="20" width="120" height="30" as="geometry" />
        </mxCell>
        <mxCell id="w08Ihvo3caiAlTER4Esc-7" value="&lt;div&gt;AopNamespaceHandler&lt;/div&gt;" style="whiteSpace=wrap;html=1;fillColor=#ffe6cc;strokeColor=#d79b00;" parent="8Big4Oky50_R1mQjc7tm-5" vertex="1">
          <mxGeometry x="35" y="60" width="130" height="60" as="geometry" />
        </mxCell>
        <mxCell id="8Big4Oky50_R1mQjc7tm-6" value="" style="group;fillColor=#d5e8d4;strokeColor=#82b366;" parent="1" vertex="1" connectable="0">
          <mxGeometry x="569" y="-377" width="200" height="190" as="geometry" />
        </mxCell>
        <mxCell id="Q8GiGGS7Q5M12Zl3h-_X-30" value="" style="group;fillColor=#dae8fc;strokeColor=#6c8ebf;container=0;" parent="8Big4Oky50_R1mQjc7tm-6" vertex="1" connectable="0">
          <mxGeometry width="200" height="190" as="geometry" />
        </mxCell>
        <mxCell id="JjXOpYsjtVwmJttBmwgl-5" value="ProxyFactoryBean" style="rounded=1;whiteSpace=wrap;html=1;fillColor=#ffe6cc;strokeColor=#d79b00;container=0;" parent="8Big4Oky50_R1mQjc7tm-6" vertex="1">
          <mxGeometry x="40" y="140" width="120" height="40" as="geometry" />
        </mxCell>
        <mxCell id="Q8GiGGS7Q5M12Zl3h-_X-9" value="" style="swimlane;startSize=0;fillColor=#dae8fc;strokeColor=#6c8ebf;container=0;" parent="8Big4Oky50_R1mQjc7tm-6" vertex="1">
          <mxGeometry width="200" height="190" as="geometry" />
        </mxCell>
        <mxCell id="Q8GiGGS7Q5M12Zl3h-_X-11" value="&lt;div&gt;手动aop&lt;/div&gt;&lt;div&gt;&lt;br&gt;&lt;/div&gt;" style="text;html=1;align=center;verticalAlign=middle;resizable=0;points=[];autosize=1;strokeColor=#6c8ebf;fillColor=#dae8fc;container=0;" parent="8Big4Oky50_R1mQjc7tm-6" vertex="1">
          <mxGeometry x="70" y="10" width="60" height="30" as="geometry" />
        </mxCell>
        <mxCell id="8Big4Oky50_R1mQjc7tm-8" value="" style="group;fillColor=#f5f5f5;fontColor=#333333;strokeColor=#666666;" parent="1" vertex="1" connectable="0">
          <mxGeometry x="301" y="-75" width="650" height="370" as="geometry" />
        </mxCell>
        <mxCell id="JjXOpYsjtVwmJttBmwgl-29" value="" style="swimlane;startSize=0;html=1;fillColor=#fff2cc;strokeColor=#d6b656;" parent="8Big4Oky50_R1mQjc7tm-8" vertex="1">
          <mxGeometry width="650" height="370" as="geometry" />
        </mxCell>
        <mxCell id="JjXOpYsjtVwmJttBmwgl-31" value="DefaultAdvisorChainFactory" style="text;html=1;align=center;verticalAlign=middle;resizable=0;points=[];autosize=1;strokeColor=none;fillColor=none;" parent="JjXOpYsjtVwmJttBmwgl-29" vertex="1">
          <mxGeometry x="15" y="10" width="160" height="20" as="geometry" />
        </mxCell>
        <mxCell id="Q8GiGGS7Q5M12Zl3h-_X-33" value="" style="group;fillColor=#dae8fc;strokeColor=#6c8ebf;" parent="JjXOpYsjtVwmJttBmwgl-29" vertex="1" connectable="0">
          <mxGeometry x="20" y="91" width="250" height="250" as="geometry" />
        </mxCell>
        <mxCell id="JjXOpYsjtVwmJttBmwgl-19" value="ThrowsAdviceAdapter" style="rounded=1;whiteSpace=wrap;html=1;fillColor=#f8cecc;strokeColor=#b85450;flipH=0;" parent="Q8GiGGS7Q5M12Zl3h-_X-33" vertex="1">
          <mxGeometry x="50" y="190" width="150" height="60" as="geometry" />
        </mxCell>
        <mxCell id="JjXOpYsjtVwmJttBmwgl-20" value="" style="swimlane;startSize=0;flipH=0;container=0;fillColor=#d5e8d4;strokeColor=#82b366;" parent="Q8GiGGS7Q5M12Zl3h-_X-33" vertex="1">
          <mxGeometry width="250" height="250" as="geometry" />
        </mxCell>
        <mxCell id="JjXOpYsjtVwmJttBmwgl-17" value="MethodBeforeAdviceAdapter" style="rounded=1;whiteSpace=wrap;html=1;fillColor=#f8cecc;strokeColor=#b85450;" parent="Q8GiGGS7Q5M12Zl3h-_X-33" vertex="1">
          <mxGeometry x="40" y="60" width="170" height="60" as="geometry" />
        </mxCell>
        <mxCell id="JjXOpYsjtVwmJttBmwgl-18" value="&lt;div&gt;AfterReturningAdviceAdapter&lt;/div&gt;" style="rounded=1;whiteSpace=wrap;html=1;fillColor=#f8cecc;strokeColor=#b85450;" parent="Q8GiGGS7Q5M12Zl3h-_X-33" vertex="1">
          <mxGeometry x="45" y="120" width="160" height="60" as="geometry" />
        </mxCell>
        <mxCell id="JjXOpYsjtVwmJttBmwgl-24" value="" style="shape=flexArrow;endArrow=classic;html=1;rounded=0;fillColor=#f5f5f5;strokeColor=#666666;" parent="Q8GiGGS7Q5M12Zl3h-_X-33" edge="1">
          <mxGeometry width="50" height="50" relative="1" as="geometry">
            <mxPoint x="245" y="120" as="sourcePoint" />
            <mxPoint x="360" y="120" as="targetPoint" />
          </mxGeometry>
        </mxCell>
        <mxCell id="JjXOpYsjtVwmJttBmwgl-32" value="&lt;div&gt;AdvisorAdapterRegistry&lt;/div&gt;&lt;div&gt;单例&lt;br&gt;&lt;/div&gt;" style="text;html=1;align=center;verticalAlign=middle;resizable=0;points=[];autosize=1;strokeColor=#b85450;fillColor=#f8cecc;" parent="Q8GiGGS7Q5M12Zl3h-_X-33" vertex="1">
          <mxGeometry x="55" y="20" width="140" height="30" as="geometry" />
        </mxCell>
        <mxCell id="JjXOpYsjtVwmJttBmwgl-27" value="适配" style="text;html=1;align=center;verticalAlign=middle;resizable=0;points=[];autosize=1;strokeColor=none;fillColor=none;" parent="8Big4Oky50_R1mQjc7tm-8" vertex="1">
          <mxGeometry x="290" y="151" width="40" height="20" as="geometry" />
        </mxCell>
        <mxCell id="8Big4Oky50_R1mQjc7tm-1" value="" style="group;fillColor=#dae8fc;strokeColor=#6c8ebf;" parent="8Big4Oky50_R1mQjc7tm-8" vertex="1" connectable="0">
          <mxGeometry x="380" y="91" width="260" height="246" as="geometry" />
        </mxCell>
        <mxCell id="JjXOpYsjtVwmJttBmwgl-25" value="" style="swimlane;startSize=0;fillColor=#f8cecc;strokeColor=#b85450;container=0;" parent="8Big4Oky50_R1mQjc7tm-1" vertex="1">
          <mxGeometry width="260" height="246" as="geometry" />
        </mxCell>
        <mxCell id="JjXOpYsjtVwmJttBmwgl-26" value="MethodIntercptor" style="rounded=1;whiteSpace=wrap;html=1;fillColor=#f8cecc;strokeColor=#b85450;container=0;" parent="8Big4Oky50_R1mQjc7tm-1" vertex="1">
          <mxGeometry x="70" y="172" width="120" height="60" as="geometry" />
        </mxCell>
        <mxCell id="JjXOpYsjtVwmJttBmwgl-16" value="&lt;div&gt;InterceptorAndDynamicMethodMatcher&lt;/div&gt;&lt;div&gt;&lt;br&gt;&lt;/div&gt;" style="rounded=1;whiteSpace=wrap;html=1;fillColor=#fff2cc;strokeColor=#d6b656;container=0;" parent="8Big4Oky50_R1mQjc7tm-1" vertex="1">
          <mxGeometry x="10" y="92" width="240" height="60" as="geometry" />
        </mxCell>
        <mxCell id="JjXOpYsjtVwmJttBmwgl-6" value="ProxyCreatorSupport" style="rounded=1;whiteSpace=wrap;html=1;fillColor=#ffe6cc;strokeColor=#d79b00;container=0;" parent="1" vertex="1">
          <mxGeometry x="609" y="-327" width="120" height="60" as="geometry" />
        </mxCell>
        <mxCell id="Q8GiGGS7Q5M12Zl3h-_X-8" style="edgeStyle=orthogonalEdgeStyle;rounded=0;orthogonalLoop=1;jettySize=auto;html=1;entryX=0.5;entryY=1;entryDx=0;entryDy=0;fillColor=#dae8fc;strokeColor=#6c8ebf;" parent="1" source="JjXOpYsjtVwmJttBmwgl-5" target="JjXOpYsjtVwmJttBmwgl-6" edge="1">
          <mxGeometry relative="1" as="geometry">
            <mxPoint x="659" y="-277" as="targetPoint" />
          </mxGeometry>
        </mxCell>
      </root>
    </mxGraphModel>
  </diagram>
</mxfile>
